# xmcd
#
# Track frame offsets:
#	150
#	11532
#	29622
#	42272
#	56762
#	70387
#
# Disc length: 1121 seconds
#
# Revision: 1
# Processed by: cddbd v1.5.2PL0 Copyright (c) Steve Scherf et al.
# Submitted via: audiograbber 1.83.01
#
DISCID=4f045f06
DTITLE=Comstock - Comstock Winter 2000
DYEAR=2000
DGENRE=
TTITLE0=Howdy - Switzerland - Ain´t No One In Love With Me
TTITLE1=The Helldordos - Australia - Sooner Or Later
TTITLE2=Randy Spencer - Usa - Dancing Tonight
TTITLE3=Company Time - Switzerland - Solitaire Misery
TTITLE4=Donna Rae Walls - England - Let Jesus In
TTITLE5=Ellen Herrington - USA - How Do You Yodel
EXTD=
EXTT0=
EXTT1=
EXTT2=
EXTT3=
EXTT4=
EXTT5=
PLAYORDER=
